# ProBuilder 4.4.0
# https://unity3d.com/unity/features/worldbuilding/probuilder
# 4/23/2021 5:23:53 AM

mtllib ./TreeLeaves1.mtl
o TreeLeaves1

g TreeLeaves1
v 2.628662 7.20273 0.6648407
v 4.761765 4.67 3.412109
v 1.54509 6.21509 3.164841
v 4.969925 2.17 3.830841
v 3.216675 3.71509 5.247269
v 0 4.798656 4.253254
v 0 7.94948 0
v -1.545085 6.215085 2.5
v -2.628655 6.423254 0
v 3.334991 6.99457 -2.5
v -1.545085 6.215085 -2.5
v 0 4.798662 -5.993317
v 6.551666 4.67 -0.3429108
v 4.289902 3.71509 -5.785156
v 4.969925 2.17 -1.426483
v 5.716675 2.17 1.202179
v -5.696045 4.67 1.54509
v -2.5 3.715085 4.045085
v -5.904205 2.17 2.628662
v 0 2.17 5
v 2.5 0.6249151 4.045085
v 0 -0.4586554 4.253254
v 4.761765 0.411272 2.747269
v 4.761765 0.411272 -0.3429108
v 2.628662 -1.341978 0
v 2.5 0.6249104 -5.785156
v 0 2.17 -6.740067
v 0 -0.458662 -5.993317
v -4.150955 3.71509 -5.785156
v -5.696045 4.67 -1.54509
v -5.904205 2.17 -2.628662
v -2.628655 -2.083254 0
v -5.696045 -0.3299999 1.54509
v -1.545085 -1.875085 2.5
v -2.5 0.6249151 4.045085
v 0 -2.088728 0
v 1.54509 -1.133818 2.5
v -1.545085 -1.875085 -2.5
v 1.54509 -1.133818 -2.5
v -5.696045 -0.3299999 -1.54509
v -4.150955 0.6249104 -5.785156
v -6.650955 2.17 0

vt -2.628655 0
vt -4.045085 1.545085
vt -1.545085 2.5
vt -1.545085 7.5
vt -2.628655 5
vt -4.045085 6.545085
vt 4.045085 7.5
vt 2.5 6.545085
vt 1.545085 9.045085
vt 0 7.628655
vt 0 0
vt 0 4.253254
vt 1.545085 2.5
vt 2.628655 0
vt -1.545085 -2.5
vt 1.545085 -2.5
vt 0 -4.253254
vt -4.045085 -1.545085
vt -1.545085 9.045085
vt -2.5 6.545085
vt -4.045085 7.5
vt 1.545085 7.5
vt 4.045085 6.545085
vt 2.628655 5
vt 0 9.253254
vt 0 5
vt 4.045085 1.545085
vt 4.253254 5
vt 2.5 3.454915
vt 0 2.371345
vt 0 0.7467461
vt -4.253254 5
vt -2.5 3.454915
vt 4.045085 -1.545085
vt 4.045085 3.454915
vt -4.045085 2.5
vt -1.545085 0.954915
vt 1.545085 0.954915
vt 4.045085 2.5
vt -4.045085 3.454915

vn 0.3519978 0.8083345 0.4719035
vn 0.7069572 0.1736964 0.6855955
vn 0.2980502 0.7206733 0.6259362
vn -0.02852006 0.628433 0.7773408
vn 0.148707 0.895996 0.4184226
vn -0.1501739 0.7001718 0.6980024
vn -0.1116506 0.8474845 0.5189453
vn -0.4822907 0.8306608 0.2782055
vn 0.2737719 0.9617922 -0.002159326
vn -0.4822907 0.8306608 -0.2782055
vn -0.1359899 0.8513841 -0.5066082
vn -0.1427396 0.8936421 -0.4254753
vn 0.5535434 0.8299611 0.06895099
vn 0.2142345 0.7217185 -0.658199
vn 0.6971779 0.5984308 -0.3947451
vn 0.861113 -0.4217877 -0.2838654
vn 0.5702842 0.775165 0.2718368
vn 0.8637521 -0.4401405 -0.2453745
vn 0.9021224 -0.03554185 0.4300138
vn 0.954408 0.1248799 0.2711281
vn -0.3868537 0.8898824 0.2417717
vn -0.3150938 0.5831288 0.7487835
vn -0.3826345 0.5870627 0.7134061
vn -0.4969728 0.3795997 0.7803346
vn -0.2010166 0.2676886 0.9423031
vn 0.3289129 -0.4076736 0.8518324
vn 0.1134831 -0.3829713 0.9167631
vn 0.1947387 -0.2680349 0.9435222
vn 0.9257771 -0.2716075 0.2629946
vn 0.9257771 -0.2716075 -0.2629946
vn 0.8788174 -0.4771583 0
vn 0.6349684 -0.7725381 0
vn 0.8258916 -0.4783751 -0.2984298
vn 0.1149334 0.2714564 -0.9555636
vn 0.2674969 -0.1549402 -0.9510199
vn 0.194736 -0.2680357 -0.9435225
vn -0.2461518 0.8554145 -0.4557142
vn -0.3868537 0.8898824 -0.2417717
vn -0.3955179 0.8545621 -0.3365845
vn -0.8938074 0.2389133 -0.3795113
vn -0.3868537 -0.8898824 0.2417717
vn -0.4969728 -0.3795997 0.7803346
vn -0.3826345 -0.5870626 0.7134061
vn -0.3150938 -0.5831288 0.7487835
vn -0.002075126 -0.9964743 0.08387344
vn 0.2017754 -0.841156 0.5017402
vn 0.2274614 -0.9482348 0.2216124
vn 0.2680357 -0.9435225 0.194736
vn -0.002075126 -0.9964743 -0.08387344
vn 0.2680357 -0.9435225 -0.194736
vn 0.2274614 -0.9482349 -0.2216124
vn 0.2239645 -0.933657 -0.2795077
vn -0.3868537 -0.8898824 -0.2417717
vn -0.2461518 -0.8554145 -0.4557142
vn -0.3955179 -0.8545621 -0.3365845
vn -0.8938074 -0.2389133 -0.3795113
vn -0.4962371 -0.8681871 0
vn -0.9435225 -0.194736 -0.2680357
vn -0.9341729 -0.3568205 0
vn -0.9435225 -0.194736 0.2680357
vn -0.1947387 -0.2680349 0.9435222
vn -0.3841541 0 0.923269
vn -0.3568221 0 0.9341723
vn -0.1947387 0.2680349 0.9435222
vn 0.4038358 -0.8804775 0.2483463
vn 0.3608929 -0.7183987 0.5946929
vn 0.2953133 -0.7160303 0.6325272
vn 0.3890725 -0.5161573 0.7630231
vn 0.397639 -0.8520057 -0.3405429
vn 0.5729983 -0.7580616 -0.3114734
vn 0.5547819 -0.7898095 -0.2615684
vn 0.8662367 -0.3323668 -0.37305
vn -0.8741993 0 -0.4855672
vn -0.1187273 -0.2713344 -0.9551343
vn -0.2241902 0 -0.9745454
vn -0.1187273 0.2713344 -0.9551343
vn -0.9435225 0.194736 0.2680357
vn -0.9435225 0.194736 -0.2680357
vn -0.9341729 0.3568205 0
vn -0.4962371 0.8681871 0

usemtl DarkGreen
f 3/3/1 2/2/1 1/1/1
f 5/6/2 4/5/2 2/4/2
f 3/9/3 5/8/3 2/7/3
f 6/10/4 5/8/4 3/9/4
f 7/11/5 3/3/5 1/1/5
f 8/13/6 6/12/6 3/3/6
f 7/11/7 8/13/7 3/3/7
f 9/14/8 8/13/8 7/11/8
f 10/15/9 7/11/9 1/1/9
f 11/16/10 9/14/10 7/11/10
f 10/15/11 11/16/11 7/11/11
f 12/17/12 11/16/12 10/15/12
f 13/18/13 10/15/13 1/1/13
f 14/20/14 12/10/14 10/19/14
f 13/21/15 14/20/15 10/19/15
f 15/24/16 14/23/16 13/22/16
f 2/4/17 13/22/17 1/25/17
f 16/26/18 15/24/18 13/22/18
f 2/4/19 16/26/19 13/22/19
f 4/5/20 16/26/20 2/4/20
f 17/27/21 8/13/21 9/14/21
f 18/20/22 6/10/22 8/19/22
f 17/21/23 18/20/23 8/19/23
f 19/24/24 18/23/24 17/22/24
f 20/26/25 5/8/25 6/10/25
f 21/29/26 4/28/26 5/8/26
f 20/26/27 21/29/27 5/8/27
f 22/30/28 21/29/28 20/26/28
f 23/3/29 16/26/29 4/5/29
f 24/13/30 15/24/30 16/26/30
f 23/3/31 24/13/31 16/26/31
f 25/31/32 24/13/32 23/3/32
f 26/33/33 14/20/33 15/32/33
f 27/26/34 12/10/34 14/20/34
f 26/33/35 27/26/35 14/20/35
f 28/30/36 27/26/36 26/33/36
f 29/8/37 11/9/37 12/10/37
f 30/34/38 9/14/38 11/16/38
f 29/8/39 30/7/39 11/9/39
f 31/5/40 30/4/40 29/6/40
f 34/3/41 33/2/41 32/1/41
f 35/35/42 19/24/42 33/13/42
f 34/37/43 35/33/43 33/36/43
f 22/30/44 35/33/44 34/37/44
f 36/11/45 34/3/45 32/1/45
f 37/13/46 22/12/46 34/3/46
f 36/11/47 37/13/47 34/3/47
f 25/14/48 37/13/48 36/11/48
f 38/15/49 36/11/49 32/1/49
f 39/16/50 25/14/50 36/11/50
f 38/15/51 39/16/51 36/11/51
f 28/17/52 39/16/52 38/15/52
f 40/18/53 38/15/53 32/1/53
f 41/29/54 28/30/54 38/38/54
f 40/39/55 41/29/55 38/38/55
f 31/5/56 41/40/56 40/3/56
f 33/13/57 40/3/57 32/31/57
f 42/26/58 31/5/58 40/3/58
f 33/13/59 42/26/59 40/3/59
f 19/24/60 42/26/60 33/13/60
f 20/26/61 35/33/61 22/30/61
f 18/20/62 19/32/62 35/33/62
f 20/26/63 18/20/63 35/33/63
f 6/10/64 18/20/64 20/26/64
f 23/27/65 37/13/65 25/14/65
f 21/29/66 22/30/66 37/38/66
f 23/39/67 21/29/67 37/38/67
f 4/5/68 21/40/68 23/3/68
f 26/33/69 39/37/69 28/30/69
f 24/34/70 25/14/70 39/16/70
f 26/33/71 24/36/71 39/37/71
f 15/24/72 24/13/72 26/35/72
f 29/8/73 41/29/73 31/28/73
f 27/26/74 28/30/74 41/29/74
f 29/8/75 27/26/75 41/29/75
f 12/10/76 27/26/76 29/8/76
f 17/22/77 42/26/77 19/24/77
f 30/4/78 31/5/78 42/26/78
f 17/22/79 30/4/79 42/26/79
f 9/25/80 30/4/80 17/22/80

